<svg width="38" height="32" viewBox="0 0 38 32" fill="none" xmlns="http://www.w3.org/2000/svg">
<path d="M1.8125 14.4375H32.9836L21.0477 3.06876C20.4227 2.47345 20.3984 1.48439 20.9937 0.85939C21.5883 0.235171 22.5773 0.210171 23.2031 0.805483L36.8344 13.7899C37.4242 14.3805 37.75 15.1649 37.75 16C37.75 16.8344 37.4242 17.6195 36.807 18.236L23.2023 31.1938C22.9 31.482 22.5125 31.625 22.125 31.625C21.7125 31.625 21.3 31.4625 20.993 31.1399C20.3977 30.5149 20.4219 29.5266 21.0469 28.9313L33.0328 17.5625H1.8125C0.950001 17.5625 0.25 16.8625 0.25 16C0.25 15.1375 0.950001 14.4375 1.8125 14.4375Z" fill="white"/>
</svg>
