<svg width="72" height="28" viewBox="0 0 72 28" fill="none" xmlns="http://www.w3.org/2000/svg">
<path d="M2.136 22V4.96H3.816V20.512H13.656V22H2.136ZM25.4046 22.24C24.4926 22.24 23.6606 22.072 22.9086 21.736C22.1566 21.384 21.5006 20.912 20.9406 20.32C20.3966 19.728 19.9726 19.04 19.6686 18.256C19.3646 17.472 19.2126 16.648 19.2126 15.784C19.2126 14.904 19.3646 14.072 19.6686 13.288C19.9886 12.504 20.4206 11.816 20.9646 11.224C21.5246 10.632 22.1806 10.16 22.9326 9.808C23.6846 9.456 24.5086 9.28 25.4046 9.28C26.3006 9.28 27.1246 9.456 27.8766 9.808C28.6446 10.16 29.3006 10.632 29.8446 11.224C30.4046 11.816 30.8366 12.504 31.1406 13.288C31.4606 14.072 31.6206 14.904 31.6206 15.784C31.6206 16.648 31.4686 17.472 31.1646 18.256C30.8606 19.04 30.4286 19.728 29.8686 20.32C29.3246 20.912 28.6686 21.384 27.9006 21.736C27.1486 22.072 26.3166 22.24 25.4046 22.24ZM20.8686 15.808C20.8686 16.512 20.9886 17.168 21.2286 17.776C21.4686 18.368 21.7886 18.896 22.1886 19.36C22.6046 19.808 23.0846 20.16 23.6286 20.416C24.1886 20.672 24.7806 20.8 25.4046 20.8C26.0286 20.8 26.6126 20.672 27.1566 20.416C27.7166 20.144 28.2046 19.784 28.6206 19.336C29.0366 18.872 29.3646 18.336 29.6046 17.728C29.8446 17.12 29.9646 16.464 29.9646 15.76C29.9646 15.072 29.8446 14.424 29.6046 13.816C29.3646 13.192 29.0366 12.656 28.6206 12.208C28.2046 11.744 27.7166 11.384 27.1566 11.128C26.6126 10.856 26.0286 10.72 25.4046 10.72C24.7806 10.72 24.1966 10.856 23.6526 11.128C23.1086 11.384 22.6286 11.744 22.2126 12.208C21.7966 12.672 21.4686 13.216 21.2286 13.84C20.9886 14.448 20.8686 15.104 20.8686 15.808ZM44.166 22.168C43.302 22.168 42.51 21.992 41.79 21.64C41.086 21.272 40.47 20.792 39.942 20.2C39.43 19.608 39.03 18.928 38.742 18.16C38.454 17.392 38.31 16.6 38.31 15.784C38.31 14.92 38.446 14.096 38.718 13.312C39.006 12.512 39.406 11.816 39.918 11.224C40.43 10.632 41.038 10.16 41.742 9.808C42.462 9.456 43.254 9.28 44.118 9.28C45.19 9.28 46.118 9.552 46.902 10.096C47.686 10.624 48.358 11.296 48.918 12.112V9.496H50.382V22.048C50.382 22.912 50.214 23.672 49.878 24.328C49.558 25 49.118 25.56 48.558 26.008C48.014 26.456 47.366 26.792 46.614 27.016C45.878 27.24 45.094 27.352 44.262 27.352C42.822 27.352 41.662 27.096 40.782 26.584C39.902 26.072 39.19 25.384 38.646 24.52L39.654 23.728C40.15 24.528 40.806 25.112 41.622 25.48C42.438 25.864 43.318 26.056 44.262 26.056C44.87 26.056 45.446 25.968 45.99 25.792C46.534 25.632 47.006 25.384 47.406 25.048C47.822 24.728 48.15 24.312 48.39 23.8C48.63 23.304 48.75 22.72 48.75 22.048V19.576C48.27 20.376 47.614 21.008 46.782 21.472C45.95 21.936 45.078 22.168 44.166 22.168ZM44.622 20.8C45.102 20.8 45.574 20.712 46.038 20.536C46.502 20.36 46.918 20.128 47.286 19.84C47.67 19.536 47.99 19.2 48.246 18.832C48.502 18.464 48.67 18.088 48.75 17.704V13.84C48.574 13.392 48.334 12.976 48.03 12.592C47.726 12.208 47.382 11.88 46.998 11.608C46.614 11.336 46.198 11.12 45.75 10.96C45.318 10.8 44.878 10.72 44.43 10.72C43.726 10.72 43.094 10.872 42.534 11.176C41.99 11.464 41.526 11.848 41.142 12.328C40.758 12.808 40.462 13.352 40.254 13.96C40.062 14.568 39.966 15.184 39.966 15.808C39.966 16.48 40.086 17.12 40.326 17.728C40.566 18.336 40.894 18.872 41.31 19.336C41.742 19.784 42.238 20.144 42.798 20.416C43.358 20.672 43.966 20.8 44.622 20.8ZM64.1139 22.24C63.2019 22.24 62.3699 22.072 61.6179 21.736C60.8659 21.384 60.2099 20.912 59.6499 20.32C59.1059 19.728 58.6819 19.04 58.3779 18.256C58.0739 17.472 57.9219 16.648 57.9219 15.784C57.9219 14.904 58.0739 14.072 58.3779 13.288C58.6979 12.504 59.1299 11.816 59.6739 11.224C60.2339 10.632 60.8899 10.16 61.6419 9.808C62.3939 9.456 63.2179 9.28 64.1139 9.28C65.0099 9.28 65.8339 9.456 66.5859 9.808C67.3539 10.16 68.0099 10.632 68.5539 11.224C69.1139 11.816 69.5459 12.504 69.8499 13.288C70.1699 14.072 70.3299 14.904 70.3299 15.784C70.3299 16.648 70.1779 17.472 69.8739 18.256C69.5699 19.04 69.1379 19.728 68.5779 20.32C68.0339 20.912 67.3779 21.384 66.6099 21.736C65.8579 22.072 65.0259 22.24 64.1139 22.24ZM59.5779 15.808C59.5779 16.512 59.6979 17.168 59.9379 17.776C60.1779 18.368 60.4979 18.896 60.8979 19.36C61.3139 19.808 61.7939 20.16 62.3379 20.416C62.8979 20.672 63.4899 20.8 64.1139 20.8C64.7379 20.8 65.3219 20.672 65.8659 20.416C66.4259 20.144 66.9139 19.784 67.3299 19.336C67.7459 18.872 68.0739 18.336 68.3139 17.728C68.5539 17.12 68.6739 16.464 68.6739 15.76C68.6739 15.072 68.5539 14.424 68.3139 13.816C68.0739 13.192 67.7459 12.656 67.3299 12.208C66.9139 11.744 66.4259 11.384 65.8659 11.128C65.3219 10.856 64.7379 10.72 64.1139 10.72C63.4899 10.72 62.9059 10.856 62.3619 11.128C61.8179 11.384 61.3379 11.744 60.9219 12.208C60.5059 12.672 60.1779 13.216 59.9379 13.84C59.6979 14.448 59.5779 15.104 59.5779 15.808Z" fill="url(#paint0_linear_6_707)"/>
<defs>
<linearGradient id="paint0_linear_6_707" x1="36" y1="0" x2="36" y2="28" gradientUnits="userSpaceOnUse">
<stop stop-color="#8F00FF"/>
<stop offset="1" stop-color="#FF00D6"/>
</linearGradient>
</defs>
</svg>
